<svg id="Capa_1" data-name="Capa 1" xmlns="http://www.w3.org/2000/svg" viewBox="0 0 200 200"><defs><style>.cls-1{fill:#007bff;}.cls-2{fill:none;}</style></defs><title>icon</title><path class="cls-1" d="M32,32.48a3.52,3.52,0,0,0,0,7h0a3.52,3.52,0,0,0,0-7Z"/><path class="cls-1" d="M48,32.48a3.52,3.52,0,1,0,0,7h0a3.52,3.52,0,0,0,0-7Z"/><path class="cls-1" d="M64,32.48a3.52,3.52,0,1,0,0,7h0a3.52,3.52,0,0,0,0-7Z"/><path class="cls-1" d="M148.87,32.48H91.48a3.52,3.52,0,1,0,0,7h57.39a3.52,3.52,0,1,0,0-7Z"/><path class="cls-1" d="M91.56,67.63H32.5A3.53,3.53,0,0,0,29,71.15v59.06a3.53,3.53,0,0,0,3.52,3.52H91.56a3.52,3.52,0,0,0,3.52-3.52V71.15A3.52,3.52,0,0,0,91.56,67.63ZM88.05,126.7H36v-52h52Z"/><path class="cls-1" d="M185.09,70.11,171,62V27.55A10.56,10.56,0,0,0,160.47,17H20.55A10.56,10.56,0,0,0,10,27.55V142.87a10.56,10.56,0,0,0,10.55,10.54h91l-2.65,25.71a3.51,3.51,0,0,0,1.74,3.4,3.47,3.47,0,0,0,1.76.47,3.53,3.53,0,0,0,2.06-.66l28.87-20.89a3.53,3.53,0,0,0,1-1.09l4-6.94h12.13A10.56,10.56,0,0,0,171,142.87V115.45a3.54,3.54,0,0,0-.16-1l17.83-30.87A9.86,9.86,0,0,0,185.09,70.11ZM17,27.55A3.52,3.52,0,0,1,20.55,24H160.47A3.52,3.52,0,0,1,164,27.55V47.94H17Zm96,114.73a3.4,3.4,0,0,0-.45,1.39l-.28,2.71H20.55A3.52,3.52,0,0,1,17,142.87V55H164v5.76c-.21,0-.43.09-.64.15a9.74,9.74,0,0,0-6,4.58l-11,19h-34.9a3.52,3.52,0,1,0,0,7h30.84l-5.68,9.84H111.49a3.52,3.52,0,1,0,0,7h21.1l-5.68,9.85H111.49a3.52,3.52,0,1,0,0,7h11.36ZM116.73,172,119,149.79l15.82,9.13ZM164,142.87h0a3.52,3.52,0,0,1-3.52,3.51H152.4L164,126.32Zm-24,10.92-19.12-11,33.43-57.91,19.12,11ZM182.6,80,177,89.8l-19.12-11L163.47,69a2.8,2.8,0,0,1,3.82-1l14.28,8.24A2.8,2.8,0,0,1,182.6,80Z"/><path class="cls-1" d="M54.62,113a3.52,3.52,0,0,0,5,0L79.28,93.32a3.51,3.51,0,0,0-5-5l-17.2,17.2-7.36-7.36a3.52,3.52,0,0,0-5,5Z"/><path class="cls-1" d="M111.49,74.66h28.84a3.52,3.52,0,0,0,0-7H111.49a3.52,3.52,0,1,0,0,7Z"/><rect class="cls-2" width="200" height="200"/></svg>